<?xml version="1.0" encoding="utf-8"?>
<!-- Generator: Adobe Illustrator 25.4.1, SVG Export Plug-In . SVG Version: 6.00 Build 0)  -->
<svg version="1.1" id="Pokéball" xmlns="http://www.w3.org/2000/svg" xmlns:xlink="http://www.w3.org/1999/xlink" x="0px" y="0px"
	 viewBox="0 0 595.3 594.1" style="enable-background:new 0 0 595.3 594.1;" xml:space="preserve">
<style type="text/css">
	.st0{fill:#FFFFFF;}
</style>
<path id="Line" class="st0" d="M299,82.5c113,0,205.7,86.7,215.1,197.2H379.7c-8-38-41.7-66.6-82.1-66.6s-74.1,28.6-82.1,66.6H83.9
	C93.4,169.2,186.1,82.5,299,82.5z M343.9,279.7c2,5.4,3.1,11.2,3.1,17.3l0,0h0.1l0,0c0,6.1-1.1,11.9-3.1,17.3
	c-7,18.8-25.1,32.1-46.3,32.1c-21.2,0-39.3-13.4-46.3-32.1c-2-5.4-3.1-11.2-3.1-17.3l0,0h-0.1l0,0c0-6.1,1.1-11.9,3.1-17.3
	c7-18.8,25.1-32.1,46.3-32.1S336.9,261,343.9,279.7z M296.2,511.6c-113,0-205.7-86.7-215.1-197.2h134.4c8,38,41.7,66.6,82.1,66.6
	s74.1-28.6,82.1-66.6h131.7C501.9,424.8,409.2,511.6,296.2,511.6z M297.6,41.3C156.4,41.3,41.9,155.8,41.9,297
	s114.5,255.7,255.7,255.7S553.4,438.3,553.4,297S438.9,41.3,297.6,41.3z"/>
</svg>
